<svg width="512px" height="512px" viewBox="0 0 12 12" xmlns="http://www.w3.org/2000/svg">
  <g id="mug">
    <path style="fill:#000000;"
      d="
        M 3.25 2.25

        l 0 5
        q 0 2, 1 2.5
        q 1.75 0.6, 3.5 0
        q 1 -0.5, 1 -2.5
        l 0 -5
        q -2.75 -0.2, -5.5 0

        Z
      " />
    <path style="fill:#000000;"
      d="
        M 8.7 3.252

        l 0.5 0
        q 1 0, 1 1
        l 0 2
        q 0 1, -1 1
        l -0.5 0

        l 0 -0.3

        l 0.5 0
        q 0.7 0, 0.7 -0.7
        l 0 -2
        q 0 -0.7, -0.7 -0.7
        l -0.5 0

        Z
      " />
  </g>
  <g id="led">
    <path style="fill:#FFFFFF;"
      d="
        M 5.25 9.25

        q 0.75 0.2, 1.5 0
        q -0.75 0.05, -1.5 0

        Z
      " />
  </g>
</svg>
